# xmcd
#
# Track frame offsets:
#	150
#	14618
#	27529
#	44254
#	65484
#	80709
#	90338
#	108170
#	121465
#	142855
#	152610
#
# Disc length: 2273 seconds
# Revision: 1
# Processed by: cddbd v1.5.2PL0 Copyright (c) Steve Scherf et al.
# Submitted via: dBpowerAMP V12.0
#
DISCID=8808df0b
DTITLE=Mojo Bluesmen - Morphine and Mayhem
DYEAR=2012
DGENRE=Blues
TTITLE0=Morphine and Mayhem
TTITLE1=Take a Bit of Whiskey
TTITLE2=Doctor Said
TTITLE3=Calling For You
TTITLE4=The Day I Die
TTITLE5=Comin' Home
TTITLE6=Holding on
TTITLE7=Lay Down
TTITLE8=Rollin' Thru The Night
TTITLE9=Catch us
TTITLE10=By The Fire
EXTD=
EXTT0=
EXTT1=
EXTT2=
EXTT3=
EXTT4=
EXTT5=
EXTT6=
EXTT7=
EXTT8=
EXTT9=
EXTT10=
PLAYORDER=
